<svg width="385" height="385" viewBox="0 0 385 385" fill="none" xmlns="http://www.w3.org/2000/svg">
<rect x="10.71" y="10.71" width="363.58" height="363.58" rx="181.79" fill="#AAA2FF"/>
<rect x="10.71" y="10.71" width="363.58" height="363.58" rx="181.79" stroke="#7467FF" stroke-width="20.58"/>
<rect x="76.5874" y="116.919" width="231.825" height="175.306" rx="34.4863" fill="#EFF2F9"/>
<path d="M129.614 77.0807C134.62 67.843 147.878 67.843 152.883 77.0807L175.045 117.978C179.824 126.795 173.44 137.516 163.411 137.516H119.087C109.058 137.516 102.674 126.795 107.452 117.978L129.614 77.0807Z" fill="#EFF2F9"/>
<path d="M232.116 77.0807C237.122 67.843 250.379 67.843 255.385 77.0807L277.547 117.978C282.325 126.795 275.941 137.516 265.913 137.516H221.588C211.56 137.516 205.176 126.795 209.954 117.978L232.116 77.0807Z" fill="#EFF2F9"/>
<path fill-rule="evenodd" clip-rule="evenodd" d="M181.393 201.91C183.838 206.74 179.739 211.758 174.324 211.758C170.666 211.758 167.537 209.335 165.421 206.352C161.454 200.762 154.929 197.114 147.553 197.114C140.177 197.114 133.652 200.762 129.685 206.352C127.569 209.335 124.44 211.758 120.782 211.758C115.368 211.758 111.268 206.74 113.713 201.91C119.964 189.565 132.77 181.103 147.553 181.103C162.336 181.103 175.142 189.565 181.393 201.91Z" fill="#2B2323"/>
<path fill-rule="evenodd" clip-rule="evenodd" d="M278.146 201.91C280.591 206.74 276.491 211.758 271.077 211.758C267.419 211.758 264.29 209.335 262.174 206.352C258.207 200.762 251.682 197.114 244.306 197.114C236.93 197.114 230.405 200.762 226.438 206.352C224.321 209.335 221.192 211.758 217.535 211.758C212.12 211.758 208.021 206.74 210.466 201.91C216.717 189.565 229.523 181.103 244.306 181.103C259.089 181.103 271.895 189.565 278.146 201.91Z" fill="#2B2323"/>
<path d="M194.894 241.779C193.463 243.192 191.162 243.192 189.73 241.779L179.764 231.938C177.426 229.629 179.061 225.648 182.346 225.648H202.278C205.564 225.648 207.198 229.629 204.86 231.938L194.894 241.779Z" fill="#FF8A8A"/>
<path d="M133.899 94.9643C137.268 88.7482 146.188 88.7482 149.557 94.9643L164.47 122.484C167.685 128.417 163.389 135.631 156.641 135.631H126.815C120.067 135.631 115.771 128.417 118.986 122.484L133.899 94.9643Z" fill="#FFB0B0"/>
<path d="M236.4 94.9643C239.768 88.7482 248.689 88.7482 252.058 94.9643L266.97 122.484C270.186 128.417 265.89 135.631 259.142 135.631H229.316C222.568 135.631 218.272 128.417 221.487 122.484L236.4 94.9643Z" fill="#FFB0B0"/>
<rect x="241.355" y="229.958" width="56.5193" height="8.62158" rx="4.31079" fill="#C8C8C8"/>
<rect x="98.6201" y="229.958" width="56.5193" height="8.62158" rx="4.31079" fill="#C8C8C8"/>
<rect x="241.355" y="245.286" width="56.5193" height="8.62158" rx="4.31079" fill="#C8C8C8"/>
<rect x="98.6201" y="245.286" width="56.5193" height="8.62158" rx="4.31079" fill="#C8C8C8"/>
<path d="M195.669 297.484C190.03 293.794 190.03 285.53 195.669 281.84L221.83 264.722C228.047 260.655 236.296 265.115 236.296 272.544V306.78C236.296 314.209 228.047 318.67 221.83 314.602L195.669 297.484Z" fill="#00A3FF"/>
<path d="M189.288 281.84C194.927 285.529 194.927 293.793 189.288 297.483L163.127 314.601C156.91 318.669 148.662 314.209 148.662 306.779V272.544C148.662 265.114 156.91 260.654 163.127 264.722L189.288 281.84Z" fill="#00A3FF"/>
<rect x="184.883" y="275.641" width="14.0214" height="26.8744" rx="7.01071" fill="#4EBFFF"/>
</svg>
