<svg width="106" height="106" viewBox="0 0 106 106" fill="none" xmlns="http://www.w3.org/2000/svg">
<rect x="3.18" y="3.18" width="99.64" height="99.64" rx="49.82" fill="#AAA2FF"/>
<rect x="3.18" y="3.18" width="99.64" height="99.64" rx="49.82" stroke="#7467FF" stroke-width="5.64"/>
<rect x="22.8357" y="36.2886" width="60.3172" height="45.6118" rx="8.97281" fill="#00A3FF"/>
<path d="M53.4652 66.8489C53.0929 67.2166 52.4941 67.2166 52.1217 66.8489L49.5286 64.2884C48.9204 63.6878 49.3457 62.6519 50.2004 62.6519H55.3865C56.2412 62.6519 56.6665 63.6878 56.0583 64.2884L53.4652 66.8489Z" fill="#FFFA83"/>
<ellipse cx="43.0048" cy="59.247" rx="3.39124" ry="6.42551" fill="#2B2323"/>
<ellipse cx="63.7091" cy="59.247" rx="3.39124" ry="6.42551" fill="#2B2323"/>
<rect x="49.2515" y="27.8334" width="4.28368" height="10.7092" rx="2.14184" fill="#00A3FF"/>
<rect x="54.96" y="30.6891" width="2.43222" height="7.60361" rx="1.21611" transform="rotate(27.9725 54.96 30.6891)" fill="#00A3FF"/>
<rect x="44.968" y="34.7584" width="3.70699" height="8.32222" rx="1.8535" transform="rotate(-45.4417 44.968 34.7584)" fill="#00A3FF"/>
<rect x="52.5959" y="32.1171" width="2.27632" height="6.0426" rx="1.13816" transform="rotate(27.9725 52.5959 32.1171)" fill="#0D7BB9"/>
<rect x="47.8237" y="33.1678" width="2.27632" height="6.0426" rx="1.13816" transform="rotate(-24.7221 47.8237 33.1678)" fill="#0D7BB9"/>
<path d="M75.8356 42.862C74.9564 41.3449 75.9228 39.4242 77.665 39.226L85.7471 38.3067C87.6678 38.0882 89.0634 40.0895 88.1946 41.8163L84.1911 49.7734C83.3223 51.5002 80.8835 51.5723 79.9142 49.8998L75.8356 42.862Z" fill="#DF5DFF"/>
<path d="M76.1815 38.4798C77.0607 39.9969 76.0943 41.9177 74.3521 42.1158L66.27 43.0351C64.3493 43.2536 62.9537 41.2523 63.8225 39.5255L67.826 31.5684C68.6948 29.8416 71.1336 29.7696 72.1029 31.4421L76.1815 38.4798Z" fill="#DF5DFF"/>
<rect x="75.8828" y="36.5239" width="3.64816" height="6.9923" rx="1.82408" transform="rotate(26.7086 75.8828 36.5239)" fill="#E88EFF"/>
</svg>
