<svg width="106" height="106" viewBox="0 0 106 106" fill="none" xmlns="http://www.w3.org/2000/svg">
<rect x="3.18" y="3.18" width="99.64" height="99.64" rx="49.82" fill="#AAA2FF"/>
<rect x="3.18" y="3.18" width="99.64" height="99.64" rx="49.82" stroke="#7467FF" stroke-width="5.64"/>
<rect x="21.2339" y="32.287" width="63.5322" height="48.0429" rx="9.45107" fill="#EFF2F9"/>
<path d="M35.766 21.3693C37.1379 18.8377 40.7711 18.8377 42.143 21.3693L48.2166 32.5772C49.526 34.9936 47.7765 37.9316 45.0281 37.9316H32.881C30.1326 37.9316 28.383 34.9936 29.6925 32.5772L35.766 21.3693Z" fill="#EFF2F9"/>
<path d="M63.8568 21.3693C65.2287 18.8377 68.8619 18.8377 70.2338 21.3693L76.3074 32.5772C77.6168 34.9936 75.8673 37.9316 73.1189 37.9316H60.9718C58.2234 37.9316 56.4738 34.9936 57.7833 32.5772L63.8568 21.3693Z" fill="#EFF2F9"/>
<path fill-rule="evenodd" clip-rule="evenodd" d="M49.9558 55.5787C50.6261 56.9025 49.5025 58.2776 48.0187 58.2776C47.0163 58.2776 46.1588 57.6137 45.5787 56.7962C44.4915 55.2643 42.7035 54.2647 40.6821 54.2647C38.6606 54.2647 36.8727 55.2643 35.7855 56.7962C35.2054 57.6137 34.3479 58.2776 33.3455 58.2776C31.8616 58.2776 30.7381 56.9025 31.4084 55.5787C33.1213 52.1957 36.6309 49.8766 40.6821 49.8766C44.7333 49.8766 48.2429 52.1957 49.9558 55.5787Z" fill="#2B2323"/>
<path fill-rule="evenodd" clip-rule="evenodd" d="M57.9238 55.5787C57.2535 56.9025 58.377 58.2776 59.8608 58.2776C60.8633 58.2776 61.7208 57.6137 62.3009 56.7962C63.388 55.2643 65.176 54.2647 67.1975 54.2647C69.2189 54.2647 71.0069 55.2643 72.094 56.7962C72.6742 57.6137 73.5317 58.2776 74.5341 58.2776C76.0179 58.2776 77.1414 56.9025 76.4712 55.5787C74.7583 52.1957 71.2487 49.8766 67.1975 49.8766C63.1463 49.8766 59.6367 52.1957 57.9238 55.5787Z" fill="#2B2323"/>
<path d="M53.6561 66.505C53.2639 66.8923 52.6332 66.8923 52.2409 66.505L49.5097 63.8081C48.869 63.1755 49.317 62.0844 50.2173 62.0844H55.6798C56.5801 62.0844 57.028 63.1755 56.3874 63.8081L53.6561 66.505Z" fill="#FF8A8A"/>
<path d="M36.9403 26.2703C37.8634 24.5667 40.3082 24.5667 41.2314 26.2703L45.3182 33.812C46.1994 35.438 45.0221 37.415 43.1727 37.415H34.999C33.1496 37.415 31.9723 35.438 32.8534 33.812L36.9403 26.2703Z" fill="#FFB0B0"/>
<path d="M65.0309 26.2703C65.954 24.5667 68.3988 24.5667 69.3219 26.2703L73.4088 33.812C74.2899 35.438 73.1127 37.415 71.2633 37.415H63.0895C61.2401 37.415 60.0629 35.438 60.944 33.812L65.0309 26.2703Z" fill="#FFB0B0"/>
<rect x="66.3889" y="63.2656" width="15.4892" height="2.36277" rx="1.18138" fill="#C8C8C8"/>
<rect x="27.272" y="63.2656" width="15.4892" height="2.36277" rx="1.18138" fill="#C8C8C8"/>
<rect x="66.3889" y="67.4662" width="15.4892" height="2.36277" rx="1.18138" fill="#C8C8C8"/>
<rect x="27.272" y="67.4662" width="15.4892" height="2.36277" rx="1.18138" fill="#C8C8C8"/>
<path d="M53.8686 81.7713C52.3231 80.7601 52.3231 78.4953 53.8686 77.4841L61.0379 72.7929C62.7417 71.6781 65.0023 72.9005 65.0023 74.9366V84.3188C65.0023 86.3549 62.7417 87.5773 61.0379 86.4624L53.8686 81.7713Z" fill="#00A3FF"/>
<path d="M52.1197 77.4839C53.6652 78.4951 53.6652 80.7599 52.1197 81.7711L44.9503 86.4622C43.2466 87.5771 40.986 86.3547 40.986 84.3186V74.9364C40.986 72.9003 43.2466 71.6779 44.9503 72.7928L52.1197 77.4839Z" fill="#00A3FF"/>
<rect x="50.9126" y="75.7851" width="3.84261" height="7.365" rx="1.9213" fill="#4EBFFF"/>
</svg>
