<svg width="1728" height="1117" viewBox="0 0 1728 1117" fill="none" xmlns="http://www.w3.org/2000/svg">
<g clip-path="url(#clip0_47_1857)">
<rect width="1728" height="1117" fill="#0C0D10"/>
<mask id="mask0_47_1857" style="mask-type:luminance" maskUnits="userSpaceOnUse" x="1587" y="39" width="98" height="95">
<path d="M1602.94 39.2993L1684.31 54.8529L1669.37 133.006L1588 117.452L1602.94 39.2993Z" fill="white"/>
</mask>
<g mask="url(#mask0_47_1857)">
<path d="M1677.72 88.2145C1677.14 89.4908 1676.2 90.5711 1675.01 91.3245L1659.08 101.858C1658.92 101.975 1658.78 102.119 1658.67 102.284C1658.59 102.464 1658.55 102.658 1658.56 102.854L1658.18 122.012C1658.19 123.43 1657.77 124.818 1657 126.003C1656.27 127.181 1655.19 128.108 1653.92 128.661C1652.67 129.259 1651.28 129.504 1649.9 129.369L1649.38 129.268C1648.18 129.043 1647.06 128.525 1646.12 127.761L1631.11 115.866C1630.95 115.733 1630.76 115.643 1630.56 115.604C1630.36 115.566 1630.16 115.581 1629.97 115.648L1611.61 121.207C1610.24 121.622 1608.77 121.649 1607.38 121.283C1606.04 120.905 1604.82 120.162 1603.87 119.136C1602.91 118.126 1602.26 116.859 1602 115.488C1601.73 114.099 1601.86 112.662 1602.37 111.342L1609.08 93.4379C1609.17 93.2639 1609.21 93.0648 1609.19 92.8683C1609.16 92.6769 1609.09 92.4928 1609 92.3257L1598.09 76.5779C1597.29 75.4483 1596.83 74.118 1596.76 72.7387C1596.62 71.3358 1596.89 69.922 1597.53 68.6704C1598.23 67.4495 1599.26 66.4492 1600.5 65.7837C1601.73 65.1181 1603.14 64.8142 1604.54 64.9064L1623.36 65.7209C1623.54 65.7511 1623.73 65.7119 1623.89 65.6108C1624.06 65.5216 1624.22 65.3924 1624.34 65.2332L1636.13 49.8607C1636.95 48.7514 1638.06 47.8979 1639.34 47.3963C1640.32 47.0137 1641.36 46.8415 1642.41 46.8911C1643.45 46.9407 1644.47 47.211 1645.41 47.6841C1646.34 48.1573 1647.16 48.8226 1647.82 49.6363C1648.48 50.4501 1648.96 51.3938 1649.22 52.4055L1654.45 70.9474C1654.52 71.1548 1654.62 71.3471 1654.76 71.5134C1654.89 71.6677 1655.06 71.7751 1655.25 71.8179L1673.33 78.057C1674.65 78.5186 1675.8 79.3389 1676.68 80.4249C1677.53 81.5029 1678.08 82.7858 1678.28 84.148C1678.47 85.5323 1678.27 86.9377 1677.72 88.2145Z" fill="#FFD2F8"/>
</g>
<g clip-path="url(#clip1_47_1857)">
<mask id="mask1_47_1857" style="mask-type:luminance" maskUnits="userSpaceOnUse" x="1499" y="101" width="58" height="56">
<path d="M1499.97 115.408L1543.11 101.551L1556.42 142.983L1513.28 156.84L1499.97 115.408Z" fill="white"/>
</mask>
<g mask="url(#mask1_47_1857)">
<path d="M1548.69 119.293C1548.74 120.058 1548.58 120.822 1548.21 121.494L1543.32 130.725C1543.27 130.824 1543.24 130.93 1543.23 131.039C1543.24 131.146 1543.27 131.249 1543.33 131.341L1548.17 140.636C1548.54 141.316 1548.71 142.09 1548.65 142.862C1548.6 143.62 1548.33 144.347 1547.86 144.945C1547.42 145.56 1546.82 146.041 1546.12 146.338L1545.84 146.428C1545.21 146.632 1544.54 146.677 1543.88 146.557L1533.56 144.782C1533.45 144.758 1533.34 144.764 1533.23 144.798C1533.13 144.832 1533.03 144.893 1532.96 144.976L1525.6 152.454C1525.05 153.014 1524.35 153.411 1523.59 153.599C1522.85 153.771 1522.07 153.732 1521.34 153.489C1520.62 153.256 1519.97 152.819 1519.49 152.229C1518.99 151.632 1518.68 150.909 1518.58 150.142L1517.11 139.788C1517.11 139.68 1517.07 139.574 1517.01 139.486C1516.95 139.402 1516.87 139.33 1516.78 139.276L1507.41 134.574C1506.74 134.24 1506.17 133.722 1505.77 133.08C1505.33 132.444 1505.09 131.694 1505.08 130.923C1505.09 130.155 1505.32 129.405 1505.74 128.761C1506.16 128.117 1506.75 127.605 1507.45 127.281L1516.7 122.74C1516.8 122.706 1516.88 122.638 1516.92 122.549C1516.99 122.46 1517.03 122.357 1517.04 122.249L1518.67 111.779C1518.78 111.033 1519.09 110.331 1519.57 109.754C1519.94 109.315 1520.39 108.959 1520.91 108.709C1521.42 108.459 1521.99 108.321 1522.56 108.303C1523.13 108.286 1523.7 108.39 1524.23 108.608C1524.76 108.826 1525.23 109.154 1525.63 109.57L1533 117.101C1533.08 117.183 1533.18 117.247 1533.29 117.29C1533.39 117.332 1533.5 117.338 1533.61 117.308L1543.92 115.565C1544.67 115.443 1545.44 115.533 1546.15 115.826C1546.84 116.12 1547.44 116.59 1547.9 117.192C1548.35 117.809 1548.62 118.534 1548.69 119.293Z" fill="#FFF7FE"/>
</g>
</g>
<g clip-path="url(#clip2_47_1857)">
<mask id="mask2_47_1857" style="mask-type:luminance" maskUnits="userSpaceOnUse" x="632" y="949" width="70" height="68">
<path d="M632.231 963.432L687.308 949.035L701.136 1001.94L646.059 1016.33L632.231 963.432Z" fill="white"/>
</mask>
<g mask="url(#mask2_47_1857)">
<path d="M693.08 971.68C693.097 972.644 692.833 973.591 692.322 974.408L685.552 985.651C685.486 985.772 685.44 985.903 685.418 986.039C685.425 986.173 685.459 986.304 685.519 986.424L690.95 998.42C691.37 999.299 691.524 1000.28 691.394 1001.25C691.287 1002.19 690.895 1003.09 690.268 1003.81C689.671 1004.55 688.882 1005.11 687.987 1005.43L687.629 1005.53C686.822 1005.74 685.975 1005.75 685.164 1005.55L672.333 1002.61C672.198 1002.57 672.056 1002.57 671.921 1002.61C671.785 1002.64 671.662 1002.71 671.562 1002.81L661.819 1011.68C661.088 1012.35 660.187 1012.8 659.217 1012.98C658.27 1013.14 657.296 1013.04 656.404 1012.69C655.508 1012.35 654.729 1011.75 654.162 1010.98C653.585 1010.2 653.241 1009.27 653.167 1008.3L652.04 995.205C652.047 995.069 652.012 994.934 651.939 994.82C651.865 994.709 651.77 994.614 651.66 994.539L640.24 987.992C639.413 987.527 638.733 986.838 638.279 986.004C637.776 985.176 637.526 984.219 637.559 983.251C637.631 982.287 637.972 981.363 638.543 980.585C639.115 979.806 639.894 979.203 640.791 978.846L652.708 973.789C652.831 973.754 652.936 973.674 653.003 973.565C653.087 973.457 653.145 973.331 653.172 973.197L655.946 960.175C656.124 959.246 656.564 958.386 657.21 957.697C657.701 957.172 658.298 956.756 658.961 956.478C659.624 956.2 660.339 956.065 661.057 956.083C661.776 956.101 662.483 956.271 663.132 956.581C663.78 956.892 664.356 957.336 664.82 957.885L673.543 967.843C673.645 967.952 673.768 968.04 673.904 968.102C674.027 968.161 674.166 968.176 674.298 968.146L687.358 966.674C688.309 966.572 689.27 966.739 690.132 967.155C690.979 967.572 691.703 968.203 692.23 968.99C692.752 969.795 693.048 970.723 693.08 971.68Z" fill="#9ADBFF"/>
</g>
</g>
<mask id="mask3_47_1857" style="mask-type:luminance" maskUnits="userSpaceOnUse" x="788" y="1022" width="37" height="35">
<path d="M792.25 1022.23L824.45 1025.96L820.867 1056.89L788.667 1053.16L792.25 1022.23Z" fill="white"/>
</mask>
<g mask="url(#mask3_47_1857)">
<path d="M822.838 1039.17C822.648 1039.68 822.312 1040.13 821.873 1040.46L815.959 1045.03C815.899 1045.08 815.848 1045.14 815.808 1045.21C815.784 1045.28 815.775 1045.36 815.782 1045.43L816.187 1052.92C816.229 1053.47 816.108 1054.03 815.839 1054.51C815.587 1054.99 815.195 1055.38 814.714 1055.64C814.244 1055.91 813.709 1056.04 813.167 1056.03L812.958 1056C812.486 1055.95 812.035 1055.78 811.645 1055.51L805.443 1051.3C805.379 1051.25 805.304 1051.22 805.224 1051.21C805.145 1051.2 805.065 1051.21 804.992 1051.25L797.99 1053.94C797.465 1054.15 796.894 1054.2 796.341 1054.09C795.805 1053.99 795.309 1053.73 794.909 1053.36C794.504 1052.99 794.213 1052.52 794.072 1051.99C793.928 1051.45 793.937 1050.89 794.098 1050.36L796.202 1043.18C796.234 1043.11 796.243 1043.03 796.228 1042.95C796.211 1042.88 796.181 1042.81 796.138 1042.75L791.429 1036.92C791.086 1036.5 790.868 1035.99 790.799 1035.46C790.703 1034.91 790.768 1034.35 790.985 1033.85C791.222 1033.35 791.594 1032.93 792.058 1032.63C792.522 1032.34 793.06 1032.18 793.61 1032.18L800.978 1031.95C801.05 1031.96 801.123 1031.94 801.181 1031.89C801.247 1031.85 801.304 1031.8 801.346 1031.73L805.507 1025.4C805.793 1024.94 806.204 1024.57 806.689 1024.34C807.058 1024.16 807.461 1024.07 807.87 1024.06C808.279 1024.05 808.686 1024.12 809.064 1024.28C809.442 1024.44 809.782 1024.67 810.062 1024.97C810.342 1025.27 810.556 1025.63 810.689 1026.01L813.262 1033.1C813.294 1033.18 813.341 1033.25 813.401 1033.31C813.453 1033.37 813.524 1033.4 813.6 1033.41L820.835 1035.33C821.36 1035.47 821.836 1035.76 822.208 1036.16C822.571 1036.55 822.825 1037.04 822.942 1037.56C823.053 1038.1 823.018 1038.65 822.838 1039.17Z" fill="#EDA4FF"/>
</g>
<rect x="1357" y="564" width="41" height="259" rx="20.5" transform="rotate(-90 1357 564)" fill="#20222A"/>
<rect x="1441" y="540" width="55" height="189" rx="27.5" transform="rotate(-90 1441 540)" fill="#20222A"/>
<rect x="1493" y="591" width="63" height="288" rx="31.5" transform="rotate(-90 1493 591)" fill="#20222A"/>
<circle cx="1580" cy="500" r="60" fill="#20222A"/>
<ellipse cx="1683.5" cy="486" rx="95.5" ry="74" fill="#20222A"/>
<rect x="1630" y="556" width="111" height="136" rx="55.5" transform="rotate(-90 1630 556)" fill="#40486B"/>
<rect x="1630" y="556" width="111" height="136" rx="55.5" transform="rotate(-90 1630 556)" fill="#40486B"/>
<rect x="1511" y="565" width="42" height="268" rx="21" transform="rotate(-90 1511 565)" fill="#40486B"/>
<rect x="1578" y="540" width="41" height="139" rx="20.5" transform="rotate(-90 1578 540)" fill="#40486B"/>
<circle cx="1645" cy="449" r="9" fill="#D7D5EF"/>
<circle cx="1542.5" cy="678.5" r="5.5" fill="#D7D5EF"/>
<circle cx="1507.5" cy="399.5" r="5.5" fill="#D7D5EF" fill-opacity="0.25"/>
<circle cx="637" cy="74" r="8" fill="#D7D5EF"/>
<circle cx="743.5" cy="154.5" r="4.5" fill="#D7D5EF" fill-opacity="0.5"/>
<rect x="1172" y="1055.46" width="840" height="122.924" rx="61.4622" fill="#20222A"/>
<rect x="1440.69" y="874" width="219.192" height="189.265" rx="94.6323" fill="#20222A"/>
<rect x="1306.34" y="961.152" width="608.788" height="189.265" rx="94.6323" fill="#20222A"/>
<rect x="1571.5" y="874" width="222.02" height="304.384" rx="111.01" fill="#20222A"/>
<rect x="1536" y="929" width="280" height="304" rx="140" fill="#40486B"/>
<rect x="1306" y="1056" width="258" height="200" rx="100" fill="#40486B"/>
<rect x="1459" y="979" width="121.25" height="125" rx="60.625" fill="#40486B"/>
<circle cx="1670.5" cy="973.5" r="5.5" fill="#D7D5EF"/>
<circle cx="1536.5" cy="1086.5" r="5.5" fill="#D7D5EF" fill-opacity="0.75"/>
<circle cx="1521" cy="911" r="5" fill="#D7D5EF" fill-opacity="0.5"/>
<circle cx="5.81206" cy="5.81206" r="5.81206" transform="matrix(-1 0 0 1 733.624 898)" fill="#D7D5EF" fill-opacity="0.5"/>
<rect width="49" height="279" rx="24.5" transform="matrix(0 -1 -1 0 883 728)" fill="#20222A"/>
<rect width="66" height="210" rx="33" transform="matrix(0 -1 -1 0 795 699)" fill="#20222A"/>
<rect width="62" height="339" rx="31" transform="matrix(0 -1 -1 0 710 747)" fill="#20222A"/>
<ellipse cx="88.5" cy="83" rx="88.5" ry="83" transform="matrix(-1 0 0 1 762 557)" fill="#20222A"/>
<ellipse cx="135" cy="109" rx="135" ry="109" transform="matrix(-1 0 0 1 644 506)" fill="#20222A"/>
<rect width="130" height="135" rx="65" transform="matrix(0 -1 -1 0 638 693)" fill="#40486B"/>
<rect width="43" height="312" rx="21.5" transform="matrix(0 -1 -1 0 846 704)" fill="#40486B"/>
<rect width="65" height="126" rx="32.5" transform="matrix(0 -1 -1 0 728 679)" fill="#40486B"/>
<circle cx="5.81206" cy="5.81206" r="5.81206" transform="matrix(-1 0 0 1 607.624 661)" fill="#D7D5EF"/>
<circle cx="5.81206" cy="5.81206" r="5.81206" transform="matrix(-1 0 0 1 684.624 499)" fill="#D7D5EF" fill-opacity="0.25"/>
</g>
<defs>
<clipPath id="clip0_47_1857">
<rect width="1728" height="1117" fill="white"/>
</clipPath>
<clipPath id="clip1_47_1857">
<rect width="54.3686" height="54.3686" fill="white" transform="translate(1494 111.628) rotate(-17.8087)"/>
</clipPath>
<clipPath id="clip2_47_1857">
<rect width="68.3123" height="68.3123" fill="white" transform="translate(625 958.276) rotate(-14.6488)"/>
</clipPath>
</defs>
</svg>
