<svg width="106" height="106" viewBox="0 0 106 106" fill="none" xmlns="http://www.w3.org/2000/svg">
<rect x="3.18" y="3.18" width="99.64" height="99.64" rx="49.82" fill="#AAA2FF"/>
<rect x="3.18" y="3.18" width="99.64" height="99.64" rx="49.82" stroke="#7467FF" stroke-width="5.64"/>
<path d="M40.5623 29.5572C40.5623 26.8388 42.766 24.6351 45.4844 24.6351H60.5241C63.2425 24.6351 65.4462 26.8388 65.4462 29.5572V39.6749C65.4462 42.3933 63.2425 44.597 60.5241 44.597H45.4844C42.766 44.597 40.5623 42.3933 40.5623 39.6749V29.5572Z" fill="#2F3341"/>
<rect x="40.5623" y="37.2138" width="24.8839" height="3.8283" fill="#F2BCFF"/>
<rect x="32.6323" y="41.0421" width="41.2909" height="5.469" rx="2.7345" fill="#2F3341"/>
<rect x="29.8977" y="46.4252" width="46.2044" height="34.9397" rx="6.87338" fill="#B6BAC6"/>
<path d="M38.154 42.7526C40.1467 39.0753 45.4241 39.0753 47.4169 42.7526V42.7526C49.3189 46.2625 46.7776 50.5302 42.7854 50.5302V50.5302C38.7932 50.5302 36.2519 46.2625 38.154 42.7526V42.7526Z" fill="#B6BAC6"/>
<path d="M58.5831 42.7526C60.5759 39.0753 65.8533 39.0753 67.8461 42.7526V42.7526C69.7481 46.2625 67.2068 50.5302 63.2146 50.5302V50.5302C59.2224 50.5302 56.6811 46.2625 58.5831 42.7526V42.7526Z" fill="#B6BAC6"/>
<path d="M53.477 71.3104C53.1917 71.5921 52.733 71.5921 52.4478 71.3104L50.4614 69.349C49.9956 68.889 50.3213 68.0955 50.976 68.0955H54.9487C55.6035 68.0955 55.9292 68.889 55.4633 69.349L53.477 71.3104Z" fill="#FFB8DE"/>
<path d="M39.7642 44.921C41.1051 42.4466 44.6563 42.4466 45.9972 44.9211V44.9211C47.2771 47.2829 45.567 50.1545 42.8807 50.1545V50.1545C40.1944 50.1545 38.4843 47.2829 39.7642 44.921V44.921Z" fill="#FFB8DE"/>
<path d="M60.1934 44.921C61.5343 42.4466 65.0855 42.4466 66.4264 44.9211V44.9211C67.7063 47.2829 65.9962 50.1545 63.3099 50.1545V50.1545C60.6236 50.1545 58.9135 47.2829 60.1934 44.921V44.921Z" fill="#FFB8DE"/>
<rect x="62.7373" y="68.9546" width="11.2647" height="1.71835" rx="0.859173" fill="#5B5B5B"/>
<rect x="34.2891" y="68.9546" width="11.2647" height="1.71835" rx="0.859173" fill="#5B5B5B"/>
<rect x="62.7373" y="72.0095" width="11.2647" height="1.71835" rx="0.859173" fill="#5B5B5B"/>
<rect x="34.2891" y="72.0095" width="11.2647" height="1.71835" rx="0.859173" fill="#5B5B5B"/>
<ellipse cx="45.0741" cy="61.6876" rx="2.59777" ry="3.69157" fill="#2B2323"/>
<ellipse cx="60.9342" cy="61.6876" rx="2.59777" ry="3.69157" fill="#2B2323"/>
</svg>
